<svg width="36" height="36" viewBox="0 0 36 36" fill="none" xmlns="http://www.w3.org/2000/svg">
<path d="M30.0752 16.5H5.92524C5.13824 16.5 4.50024 17.138 4.50024 17.925V18.075C4.50024 18.862 5.13824 19.5 5.92524 19.5H30.0752C30.8622 19.5 31.5002 18.862 31.5002 18.075V17.925C31.5002 17.138 30.8622 16.5 30.0752 16.5Z" fill="#FF321F"/>
<path d="M30.0752 24H5.92524C5.13824 24 4.50024 24.638 4.50024 25.425V25.575C4.50024 26.362 5.13824 27 5.92524 27H30.0752C30.8622 27 31.5002 26.362 31.5002 25.575V25.425C31.5002 24.638 30.8622 24 30.0752 24Z" fill="#FF321F"/>
<path d="M30.0752 9.00003H5.92524C5.13824 9.00003 4.50024 9.63802 4.50024 10.425V10.575C4.50024 11.362 5.13824 12 5.92524 12H30.0752C30.8622 12 31.5002 11.362 31.5002 10.575V10.425C31.5002 9.63802 30.8622 9.00003 30.0752 9.00003Z" fill="#FF321F"/>
</svg>
